<svg width="512" height="512" viewBox="0 0 512 512" fill="none" xmlns="http://www.w3.org/2000/svg">
<g clip-path="url(#clip0_3_5)">
<g clip-path="url(#clip1_3_5)">
<g clip-path="url(#clip2_3_5)">
<path d="M434.201 371.979C433.309 367.638 430.749 363.854 426.966 361.405L263.794 255.889L425.854 148.369C429.417 145.92 431.976 142.136 432.866 137.795C433.756 133.343 432.866 128.891 430.305 125.218C386.675 60.6605 311.544 22.2602 233.743 22.2602H232.407C226.731 22.2602 221.165 22.5942 215.711 23.0392C94.7236 32.2783 -0.665159 134.121 0.00284622 257.335C0.670851 380.549 97.2826 481.28 218.383 489.182C223.393 489.627 228.512 489.739 233.743 489.739H235.079C313.325 489.294 388.678 449.892 431.866 384.556C434.201 380.884 435.092 376.433 434.201 371.979Z" fill="#FFC033"/>
<path d="M431.865 384.557C388.678 449.892 313.326 489.295 235.078 489.74H233.742V22.2602C311.543 22.2602 386.674 60.6605 430.304 125.217C432.865 128.89 433.756 133.342 432.865 137.794C431.975 142.135 429.416 145.919 425.853 148.368L263.793 255.889L426.965 361.406C430.749 363.855 433.308 367.639 434.2 371.98C435.092 376.433 434.201 380.884 431.865 384.557Z" fill="#F9A926"/>
<path d="M361.739 272.806C370.96 272.806 378.435 265.331 378.435 256.11C378.435 246.889 370.96 239.414 361.739 239.414C352.518 239.414 345.043 246.889 345.043 256.11C345.043 265.331 352.518 272.806 361.739 272.806Z" fill="#262626"/>
<path d="M428.521 272.806C437.742 272.806 445.217 265.331 445.217 256.11C445.217 246.889 437.742 239.414 428.521 239.414C419.3 239.414 411.825 246.889 411.825 256.11C411.825 265.331 419.3 272.806 428.521 272.806Z" fill="#262626"/>
<path d="M495.304 272.806C504.525 272.806 512 265.331 512 256.11C512 246.889 504.525 239.414 495.304 239.414C486.083 239.414 478.608 246.889 478.608 256.11C478.608 265.331 486.083 272.806 495.304 272.806Z" fill="#262626"/>
<path d="M283.825 139.241C293.046 139.241 300.521 131.766 300.521 122.545C300.521 113.324 293.046 105.849 283.825 105.849C274.604 105.849 267.129 113.324 267.129 122.545C267.129 131.766 274.604 139.241 283.825 139.241Z" fill="#665247"/>
</g>
</g>
</g>
<defs>
<clipPath id="clip0_3_5">
<rect width="512" height="512" fill="white"/>
</clipPath>
<clipPath id="clip1_3_5">
<rect width="512" height="512" fill="white"/>
</clipPath>
<clipPath id="clip2_3_5">
<rect width="512" height="512" fill="white"/>
</clipPath>
</defs>
</svg>
