<svg width="41" height="40" viewBox="0 0 41 40" fill="none" xmlns="http://www.w3.org/2000/svg">
<path d="M20.5 5H15.375C12.5445 5 10.25 7.23858 10.25 10C10.25 12.7614 12.5445 15 15.375 15M20.5 5V15M20.5 5H25.625C28.4555 5 30.75 7.23858 30.75 10C30.75 12.7614 28.4555 15 25.625 15M15.375 15H20.5M15.375 15C12.5445 15 10.25 17.2385 10.25 20C10.25 22.7615 12.5445 25 15.375 25M20.5 15H25.625M20.5 15V25M25.625 15C28.4555 15 30.75 17.2385 30.75 20C30.75 22.7615 28.4555 25 25.625 25C22.7945 25 20.5 22.7615 20.5 20C20.5 17.2385 22.7945 15 25.625 15ZM20.5 25H15.375M20.5 25V30C20.5 32.7615 18.2055 35 15.375 35C12.5445 35 10.25 32.7615 10.25 30C10.25 27.2385 12.5445 25 15.375 25" stroke="#262626" stroke-width="3" stroke-linecap="round" stroke-linejoin="round"/>
</svg>
