<svg width="38" height="38" viewBox="0 0 38 38" fill="none" xmlns="http://www.w3.org/2000/svg">
<path fill-rule="evenodd" clip-rule="evenodd" d="M18.998 0C8.50638 0 0 8.72155 0 19.4818C0 28.0883 5.44348 35.3896 12.994 37.9666C13.9443 38.1449 14.2906 37.5434 14.2906 37.0263C14.2906 36.565 14.2748 35.3394 14.2653 33.714C8.97996 34.8911 7.86518 31.1022 7.86518 31.1022C7.00102 28.8527 5.75499 28.2536 5.75499 28.2536C4.02984 27.0442 5.88544 27.0685 5.88544 27.0685C7.79244 27.2071 8.79575 29.0764 8.79575 29.0764C10.4909 32.0531 13.243 31.193 14.3254 30.6953C14.4986 29.4364 14.988 28.5779 15.5319 28.0907C11.3131 27.5995 6.87689 25.9271 6.87689 18.4629C6.87689 16.3366 7.61771 14.597 8.83291 13.2351C8.63762 12.7423 7.98535 10.7619 9.0187 8.07953C9.0187 8.07953 10.6142 7.55587 14.244 10.0769C15.7596 9.64486 17.3851 9.42842 19.0004 9.42112C20.6141 9.42842 22.2396 9.64486 23.7576 10.0769C27.385 7.55587 28.9773 8.07953 28.9773 8.07953C30.0139 10.7619 29.3616 12.7423 29.1663 13.2351C30.3839 14.597 31.1199 16.3366 31.1199 18.4629C31.1199 25.9466 26.6766 27.593 22.4436 28.0753C23.1267 28.6768 23.7339 29.8652 23.7339 31.6834C23.7339 34.2872 23.711 36.3883 23.711 37.0263C23.711 37.5483 24.0525 38.1547 25.0171 37.9642C32.5613 35.3823 38 28.0858 38 19.4818C38 8.72155 29.4928 0 18.998 0Z" fill="#FFCE1F"/>
</svg>
