<svg width="188" height="250" viewBox="0 0 188 250" fill="none" xmlns="http://www.w3.org/2000/svg">
<path fill-rule="evenodd" clip-rule="evenodd" d="M156.5 0C173.759 0 187.75 13.9911 187.75 31.25V218.75C187.75 236.009 173.759 250 156.5 250H31.5C14.2411 250 0.25 236.009 0.25 218.75V31.25C0.25 13.9911 14.2411 0 31.5 0H156.5ZM54.9375 167.969C50.6228 167.969 47.125 171.467 47.125 175.781V187.5H35.4062C31.0915 187.5 27.5938 190.998 27.5938 195.312C27.5938 199.627 31.0915 203.125 35.4062 203.125H47.125V214.844C47.125 219.158 50.6228 222.656 54.9375 222.656C59.2522 222.656 62.75 219.158 62.75 214.844V203.125H74.4688C78.7835 203.125 82.2812 199.627 82.2812 195.312C82.2812 190.998 78.7835 187.5 74.4688 187.5H62.75V175.781C62.75 171.467 59.2522 167.969 54.9375 167.969ZM144.781 199.219C138.309 199.219 133.062 204.465 133.062 210.938C133.062 217.41 138.309 222.656 144.781 222.656C151.253 222.656 156.5 217.41 156.5 210.938C156.5 204.465 151.253 199.219 144.781 199.219ZM136.969 167.969C130.497 167.969 125.25 173.215 125.25 179.688C125.25 186.16 130.497 191.406 136.969 191.406C143.441 191.406 148.688 186.16 148.688 179.688C148.688 173.215 143.441 167.969 136.969 167.969ZM140.875 31.25H47.125C38.4956 31.25 31.5 38.2456 31.5 46.875V132.812C31.5 141.442 38.4956 148.438 47.125 148.438H140.875C149.504 148.438 156.5 141.442 156.5 132.812V46.875C156.5 38.2456 149.504 31.25 140.875 31.25Z" fill="#F9A926"/>
</svg>
