<svg width="41" height="40" viewBox="0 0 41 40" fill="none" xmlns="http://www.w3.org/2000/svg">
<path d="M2.45898 0.0391388L5.74251 35.9703L20.4774 39.9608L35.253 35.9647L38.5401 0.0391388H2.45898ZM31.6908 8.56609L31.4852 10.8002L31.3949 11.7909H31.3799H20.4995H20.4838H14.1096L14.5224 16.3034H20.4838H20.4995H29.7664H30.9837L30.8734 17.4867L29.812 29.0887L29.744 29.8327L20.4995 32.3323V32.3333L20.4788 32.3389L11.226 29.8328L10.5932 22.9136H12.683H15.1275L15.4491 26.4281L20.4796 27.7535L20.4838 27.7524V27.752L25.522 26.4256L26.0458 20.7102H20.4995H20.4838H10.3914L9.28124 8.56609L9.17305 7.38398H20.4839H20.4995H31.7989L31.6908 8.56609Z" fill="#262626"/>
</svg>
