<svg width="41" height="40" viewBox="0 0 41 40" fill="none" xmlns="http://www.w3.org/2000/svg">
<g clip-path="url(#clip0_29_8)">
<path d="M34.85 0H6.15C2.75345 0 0 2.68629 0 6V34C0 37.3137 2.75345 40 6.15 40H34.85C38.2466 40 41 37.3137 41 34V6C41 2.68629 38.2466 0 34.85 0Z" fill="#262626"/>
<path d="M25.9453 28.9062C26.7461 30.2344 27.8672 31.1719 29.709 31.1719C31.3105 31.1719 32.3516 30.3906 32.3516 29.2969C32.3516 28.0469 31.3105 27.5781 29.5488 26.7969L28.5879 26.4062C25.7852 25.2344 23.9434 23.8281 23.9434 20.7812C23.9434 17.9688 26.1055 15.7812 29.5488 15.7812C32.0312 15.7812 33.793 16.6406 34.9941 18.8281L32.0312 20.7031C31.3906 19.5312 30.6699 19.0625 29.5488 19.0625C28.4277 19.0625 27.707 19.7656 27.707 20.7031C27.707 21.7969 28.4277 22.2656 30.1094 22.9688L31.0703 23.3594C34.3535 24.7656 36.1953 26.0938 36.1953 29.2969C36.1953 32.6562 33.4727 34.5312 29.7891 34.5312C26.1855 34.5312 23.8633 32.8906 22.7422 30.7031L25.9453 28.9062ZM12.332 29.2188C12.9727 30.2344 13.4531 31.1719 14.8145 31.1719C16.0957 31.1719 16.8965 30.7031 16.8965 28.8281V15.8594H20.7402V28.6719C20.7402 32.5781 18.418 34.2969 14.9746 34.2969C11.8516 34.2969 10.0898 32.7344 9.20898 30.8594L12.332 29.2188Z" fill="#FFCE1F"/>
</g>
<defs>
<clipPath id="clip0_29_8">
<rect width="41" height="40" fill="white"/>
</clipPath>
</defs>
</svg>
