<svg width="41" height="40" viewBox="0 0 41 40" fill="none" xmlns="http://www.w3.org/2000/svg">
<path d="M22.0023 2.8734C21.0928 2.37441 19.9072 2.37665 18.997 2.8734C14.4383 5.32784 9.87949 7.78302 5.31995 10.2363C4.43273 10.6917 3.83432 11.6212 3.84386 12.586V27.416C3.83746 28.3996 4.46672 29.3381 5.37683 29.7873C6.68647 30.467 7.95887 31.2158 9.29219 31.8503C10.8323 32.5886 12.7592 32.7519 14.3182 31.9819C15.5837 31.3438 16.1458 29.9244 16.1441 28.62C16.1544 23.7258 16.1458 18.8314 16.1481 13.937C16.1782 13.7195 16.0108 13.487 15.7676 13.4923C15.185 13.4833 14.6016 13.487 14.0191 13.4908C13.7989 13.4705 13.5841 13.6489 13.6007 13.8648C13.5929 18.7275 13.6023 23.5918 13.596 28.4553C13.6087 29.128 13.1428 29.7745 12.4783 30.0018C10.9434 30.5266 6.56253 27.7515 6.56253 27.7515C6.40176 27.6789 6.29967 27.5088 6.31543 27.3398C6.31543 22.447 6.31621 17.5541 6.31543 12.6621C6.29333 12.4649 6.41793 12.2873 6.60359 12.2067C11.1473 9.76675 15.6886 7.32068 20.2323 4.8792C20.3902 4.77644 20.6102 4.77675 20.7677 4.87995C25.3113 7.32068 29.8535 9.76452 34.398 12.2046C34.5843 12.285 34.7036 12.4656 34.6846 12.6621C34.6838 17.5541 34.6861 22.447 34.6831 27.3391C34.6965 27.5123 34.6048 27.68 34.4391 27.756C29.9378 30.1828 25.3853 32.5313 20.9247 35.0285C20.7301 35.1374 20.5096 35.2608 20.2915 35.1408C19.1186 34.5078 17.9598 33.8501 16.7907 33.211C16.6636 33.1336 16.5017 33.1004 16.3691 33.187C15.845 33.4565 15.3519 33.6748 14.75 33.9073C13.9046 34.2338 14.0397 34.3673 14.8022 34.8006C16.1694 35.5555 17.5389 36.3074 18.9061 37.063C19.8062 37.611 21.0156 37.65 21.9446 37.1436C26.5041 34.6923 31.0621 32.238 35.6225 29.7866C36.5301 29.335 37.1625 28.4003 37.1561 27.4159V12.586C37.165 11.6408 36.5894 10.7278 35.7289 10.2657C31.1544 7.79934 26.5776 5.3383 22.0023 2.8734Z" fill="#262626"/>
<path d="M28.8821 14.0078C27.0926 13.0738 24.9637 13.024 22.975 13.1461C21.5384 13.2846 20.0274 13.6714 18.9807 14.6761C17.9072 15.6861 17.6735 17.3171 18.1834 18.6356C18.5488 19.5674 19.4686 20.1733 20.4198 20.4938C21.6451 20.9158 22.932 21.0463 24.2193 21.1768C25.3934 21.2958 26.5679 21.4149 27.6964 21.7553C28.1574 21.9043 28.6943 22.1323 28.8355 22.6216C28.9659 23.2011 28.8229 23.8748 28.3407 24.2774C26.8088 25.4603 22.5476 25.279 21.0341 24.348C20.4221 23.9514 20.1585 23.2493 20.0512 22.5801C20.0393 22.3716 19.8672 22.1804 19.6352 22.1963C19.0542 22.1895 18.4731 22.191 17.8921 22.1955C17.6894 22.1789 17.4786 22.3196 17.4675 22.5215C17.348 25.5861 20.233 26.9221 22.9397 27.2163C24.486 27.36 26.0663 27.3518 27.5891 27.028C28.7337 26.7738 29.8815 26.3055 30.6695 25.4454C31.6412 24.4 31.8322 22.8436 31.3964 21.5415C31.0633 20.5699 30.1112 19.9466 29.138 19.626C27.8144 19.1833 26.2459 18.9453 25.0472 18.8339C23.3048 18.672 21.2343 18.7381 20.7412 17.6211C20.5445 17.0363 20.7118 16.31 21.2628 15.9503C22.7204 14.9856 25.6872 15.1138 27.1968 15.8344C27.8899 16.173 28.2916 16.8685 28.4574 17.5706C28.4881 17.7769 28.6303 17.9921 28.8751 17.9831C29.4521 17.9944 30.0292 17.9861 30.6062 17.9869C30.8044 18.0004 31.0214 17.8913 31.0601 17.6933C31.0356 16.2258 30.2675 14.7235 28.8821 14.0078Z" fill="#262626"/>
</svg>
