<svg width="38" height="38" viewBox="0 0 38 38" fill="none" xmlns="http://www.w3.org/2000/svg">
<g clip-path="url(#clip0_135_54)">
<path d="M19 0C8.50655 0 0 8.50655 0 19C0 29.4935 8.50655 38 19 38C29.4935 38 38 29.4935 38 19C38 8.50655 29.4935 0 19 0ZM21.7562 12.8426H29.0211C29.0837 12.8426 29.0459 12.8382 29.1061 12.8477L21.7562 19.0806V12.8426ZM20.3488 28.4212C20.3488 29.0577 19.7975 29.5311 19.1758 29.3948L8.65204 27.0894C8.19463 26.9891 7.85791 26.584 7.85791 26.1159V11.3787C7.85791 10.8932 8.23034 10.4781 8.70904 10.3963L19.2043 8.59627C19.8131 8.49194 20.3486 8.96096 20.3486 9.57864L20.3488 28.4212ZM30.0248 14.6983V24.159C30.0248 24.8071 29.6692 25.1576 29.0211 25.1576H21.7562V21.3092C21.7562 21.2958 29.9699 14.2104 29.9699 14.2104C30.0379 14.3589 30.0248 14.5239 30.0248 14.6983ZM15.751 14.7044C14.437 14.018 12.9101 14.2162 11.7605 15.1046C10.6535 15.9596 9.96374 17.5004 9.96374 19.0002C9.96374 20.4999 10.6535 22.0407 11.7605 22.8957C12.2703 23.2896 12.8505 23.5466 13.4545 23.6524C14.2171 23.7859 15.0191 23.678 15.751 23.2958C17.1482 22.5662 18.0124 20.9793 18.0124 19.0002C18.0124 17.0208 17.1482 15.4343 15.751 14.7044ZM14.6814 21.2751C14.0118 21.7154 13.0979 21.6969 12.4091 21.2526C11.6579 20.7677 11.2754 19.756 11.2754 19.0004C11.2754 18.2447 11.6579 17.233 12.4091 16.7481C12.724 16.5451 13.0852 16.4313 13.4488 16.4093C13.8816 16.3831 14.3184 16.4867 14.6815 16.7253C15.3161 17.1422 15.6451 17.9107 15.6451 19.0004C15.6449 20.0897 15.3161 20.8581 14.6814 21.2751Z" fill="#262626"/>
</g>
<defs>
<clipPath id="clip0_135_54">
<rect width="38" height="38" fill="white"/>
</clipPath>
</defs>
</svg>
