<svg width="250" height="250" viewBox="0 0 250 250" fill="none" xmlns="http://www.w3.org/2000/svg">
<g clip-path="url(#clip0_22_14)">
<path d="M212.013 181.63C211.577 179.511 210.327 177.663 208.48 176.467L128.806 124.946L207.937 72.4459C209.677 71.2501 210.926 69.4024 211.361 67.2828C211.795 65.1089 211.361 62.9351 210.11 61.1416C188.806 29.6194 152.122 10.8693 114.132 10.8693H113.48C110.709 10.8693 107.991 11.0323 105.328 11.2496C46.2521 15.7609 -0.324472 65.4888 0.00170268 125.652C0.327877 185.815 47.5016 235 106.632 238.858C109.079 239.076 111.578 239.13 114.132 239.13H114.785C152.991 238.913 189.784 219.674 210.873 187.772C212.013 185.979 212.448 183.805 212.013 181.63Z" fill="#FFC033"/>
<path d="M210.872 187.772C189.784 219.674 152.992 238.913 114.784 239.131H114.132V10.8693C152.121 10.8693 188.806 29.6194 210.11 61.1411C211.36 62.9346 211.795 65.1085 211.36 67.2823C210.926 69.4019 209.676 71.2496 207.936 72.4454L128.805 124.946L208.479 176.468C210.327 177.664 211.576 179.511 212.012 181.631C212.448 183.805 212.012 185.979 210.872 187.772Z" fill="#F9A926"/>
<path d="M176.63 133.206C181.132 133.206 184.782 129.556 184.782 125.054C184.782 120.551 181.132 116.901 176.63 116.901C172.127 116.901 168.478 120.551 168.478 125.054C168.478 129.556 172.127 133.206 176.63 133.206Z" fill="#262626"/>
<path d="M209.238 133.206C213.741 133.206 217.391 129.556 217.391 125.054C217.391 120.551 213.741 116.901 209.238 116.901C204.736 116.901 201.086 120.551 201.086 125.054C201.086 129.556 204.736 133.206 209.238 133.206Z" fill="#262626"/>
<path d="M241.848 133.206C246.35 133.206 250 129.556 250 125.054C250 120.551 246.35 116.901 241.848 116.901C237.345 116.901 233.695 120.551 233.695 125.054C233.695 129.556 237.345 133.206 241.848 133.206Z" fill="#262626"/>
<path d="M138.587 67.9888C143.089 67.9888 146.739 64.3388 146.739 59.8364C146.739 55.3339 143.089 51.684 138.587 51.684C134.085 51.684 130.435 55.3339 130.435 59.8364C130.435 64.3388 134.085 67.9888 138.587 67.9888Z" fill="#665247"/>
</g>
<defs>
<clipPath id="clip0_22_14">
<rect width="250" height="250" fill="white"/>
</clipPath>
</defs>
</svg>
