<svg width="250" height="250" viewBox="0 0 250 250" fill="none" xmlns="http://www.w3.org/2000/svg">
<g clip-path="url(#clip0_110_136)">
<path d="M91.9765 29.0136H229.769V122.077H153.83V139.529H230.472C239.71 139.529 247.222 132.021 247.222 122.784V28.3058C247.222 19.0684 239.71 11.5615 230.472 11.5615H91.274C82.0367 11.5615 74.5244 19.0684 74.5244 28.3058V57.586H91.9765V29.0136Z" fill="#F9A926"/>
<path d="M153.83 163.057H202.522L218.402 147.181C219.914 145.665 221.597 144.446 223.348 143.38H153.83V163.057Z" fill="#F9A926"/>
<path d="M140.742 88.6894C140.742 78.7539 132.659 70.6757 122.724 70.6757H62.2627C52.3261 70.6757 44.2441 78.7544 44.2441 88.6894V113.334H52.6254C56.0338 113.334 59.2167 114.186 62.0929 115.592L62.2632 88.1272H123.29V172.618H74.4014V189.091V197.066H121.389C121.227 194.382 121.479 191.706 122.139 189.091C123.255 184.685 125.442 180.485 128.888 177.032C128.897 177.024 128.901 177.016 128.909 177.007C132.301 173.615 136.417 171.451 140.741 170.309L140.742 88.6894ZM86.8694 183.458C86.8694 180.347 89.3911 177.833 92.4933 177.833C95.5954 177.833 98.1172 180.347 98.1172 183.458C98.1172 186.568 95.5954 189.091 92.4933 189.091C89.3906 189.09 86.8694 186.567 86.8694 183.458Z" fill="#F9A926"/>
<path d="M52.625 124.241H10.8693C4.87433 124.241 0 129.116 0 135.106V214.22C0 220.211 4.87433 225.085 10.8693 225.085H52.625C58.6194 225.085 63.4942 220.211 63.4942 214.22V135.106C63.4937 129.116 58.6194 124.241 52.625 124.241ZM13.0891 137.33H50.4047V208.126H13.0891V137.33ZM27.1322 216.597C27.1322 214.049 29.1946 211.987 31.7511 211.987C34.2906 211.987 36.3529 214.05 36.3529 216.597C36.3529 219.145 34.2906 221.216 31.7511 221.216C29.1946 221.216 27.1322 219.145 27.1322 216.597Z" fill="#F9A926"/>
<path d="M227.657 156.436L177.248 206.84L156.673 186.261C151.568 181.147 143.276 181.147 138.164 186.261C133.051 191.374 133.051 199.656 138.164 204.77L167.993 234.603C170.447 237.058 173.774 238.438 177.248 238.438C180.72 238.438 184.048 237.058 186.502 234.603L246.165 174.944C251.279 169.831 251.279 161.547 246.165 156.435C241.052 151.323 232.77 151.323 227.657 156.436Z" fill="#399700"/>
</g>
<defs>
<clipPath id="clip0_110_136">
<rect width="250" height="250" fill="white"/>
</clipPath>
</defs>
</svg>
