<svg width="250" height="250" viewBox="0 0 250 250" fill="none" xmlns="http://www.w3.org/2000/svg">
<g clip-path="url(#clip0_22_22)">
<path d="M45.6627 72.6161C52.376 47.6351 68.4317 26.664 90.9267 13.5127C113.601 0.257797 139.99 -3.39698 165.232 3.21922C190.475 9.83737 211.677 25.9682 224.931 48.6425C238.187 71.3158 241.841 97.7049 235.225 122.947L235.1 123.426L207.179 195.496V249.999H96.0112V207.241H39.7745V161.589L11.5553 154.534L45.6627 72.6161Z" fill="#FFC033"/>
<path d="M45.6633 72.6161C52.3766 47.6352 68.4323 26.664 90.9273 13.5127C105.928 4.74413 122.554 0.181152 139.398 0.00976562V250H96.0118V207.242H39.7751V161.59L11.5559 154.535L45.6633 72.6161Z" fill="#F9A926"/>
<path d="M107.829 130.596L120.161 118.264L105.399 103.501L120.161 88.7396L107.829 76.4076L80.7345 103.501L107.829 130.596Z" fill="white"/>
<path d="M171.319 130.596L198.414 103.501L171.319 76.4076L158.987 88.7396L173.75 103.501L158.987 118.264L171.319 130.596Z" fill="white"/>
<path d="M140.164 63.9701L156.809 143.033H138.986L122.341 63.9701H140.164Z" fill="white"/>
</g>
<defs>
<clipPath id="clip0_22_22">
<rect width="250" height="250" fill="white" transform="matrix(-1 0 0 1 250 0)"/>
</clipPath>
</defs>
</svg>
