<svg width="41" height="40" viewBox="0 0 41 40" fill="none" xmlns="http://www.w3.org/2000/svg">
<g clip-path="url(#clip0_29_11)">
<path d="M34.85 0H6.15C2.75345 0 0 2.68629 0 6V34C0 37.3137 2.75345 40 6.15 40H34.85C38.2466 40 41 37.3137 41 34V6C41 2.68629 38.2466 0 34.85 0Z" fill="#262626"/>
<path d="M18.6582 22.1875H23.7832V18.9844H9.44922V22.1875H14.5742V36.4844H18.6582V22.1875ZM25.3848 35.7031C26.0334 36.0313 26.8262 36.2734 27.707 36.4375C28.5879 36.6016 29.5488 36.6797 30.5098 36.6797C31.4707 36.6797 32.3516 36.5938 33.2324 36.4141C34.1133 36.2344 34.834 35.9375 35.4746 35.5547C36.1232 35.1406 36.6758 34.6172 36.9961 33.9141C37.3164 33.2109 37.5646 32.4297 37.5646 31.4141C37.5646 30.7031 37.4525 30.0859 37.2363 29.5391C37.0201 28.9922 36.7078 28.5234 36.2754 28.1328C35.867 27.7188 35.3945 27.3516 34.834 27.0391C34.2734 26.7266 33.6328 26.3984 32.9121 26.1016C32.3836 25.8906 31.9512 25.6875 31.4707 25.4844C31.0543 25.2813 30.6939 25.0781 30.4297 24.875C30.1334 24.6641 29.9092 24.4453 29.749 24.2188C29.5889 23.9844 29.5088 23.7266 29.5088 23.4375C29.5088 23.1719 29.5801 22.9297 29.725 22.7109C29.8699 22.4922 30.0693 22.3125 30.3256 22.1563C30.5818 22 30.9021 21.8828 31.2865 21.7969C31.6629 21.7109 32.0793 21.6719 32.5678 21.6719C32.9041 21.6719 33.2564 21.6961 33.6088 21.7453C33.9771 21.7945 34.3535 21.8703 34.7299 21.9719C35.1062 22.0734 35.4746 22.1984 35.851 22.3547C36.2033 22.5109 36.5316 22.6906 36.8119 22.8938V19.2219C36.2033 18.9953 35.5307 18.8234 34.81 18.7141C34.0893 18.6047 33.2885 18.55 32.3275 18.55C31.3666 18.55 30.4857 18.6516 29.6049 18.8469C28.724 19.0422 28.0033 19.3547 27.3627 19.7844C26.7141 20.2063 26.2416 20.7219 25.8412 21.425C25.4648 22.0813 25.2807 22.8313 25.2807 23.7688C25.2807 24.9406 25.625 25.9563 26.3217 26.7375C27.0104 27.5969 28.0834 28.2219 29.4447 28.8469C29.9973 29.0656 30.4857 29.2844 30.9662 29.4953C31.4467 29.7063 31.8471 29.925 32.1674 30.1516C32.5117 30.3781 32.784 30.6281 32.9682 30.8938C33.1684 31.1594 33.2725 31.4719 33.2725 31.8313C33.2725 32.0813 33.21 32.3156 33.0883 32.5344C32.9666 32.7531 32.776 32.9406 32.5197 33.0969C32.2635 33.2531 31.9512 33.3781 31.5588 33.4719C31.1824 33.5578 30.758 33.6047 30.1975 33.6047C29.3166 33.6047 28.4357 33.4563 27.635 33.1594C26.7541 32.8625 25.9533 32.4172 25.3848 31.9531V35.7031Z" fill="#FFCE1F"/>
</g>
<defs>
<clipPath id="clip0_29_11">
<rect width="41" height="40" fill="white"/>
</clipPath>
</defs>
</svg>
